<?xml version="1.0" standalone="no"?>
<!DOCTYPE svg PUBLIC "-//W3C//DTD SVG 20010904//EN"
 "http://www.w3.org/TR/2001/REC-SVG-20010904/DTD/svg10.dtd">
<svg version="1.0" xmlns="http://www.w3.org/2000/svg"
 width="700.000000pt" height="700.000000pt" viewBox="0 0 700.000000 700.000000"
 preserveAspectRatio="xMidYMid meet">
<metadata>
Created by potrace 1.11, written by Peter Selinger 2001-2013
</metadata>
<g transform="translate(0.000000,700.000000) scale(0.100000,-0.100000)"
fill="#000000" stroke="none">
<path d="M3295 6630 c-1064 -107 -1997 -737 -2488 -1678 -399 -765 -464 -1657
-182 -2481 168 -491 451 -918 855 -1293 344 -320 810 -578 1269 -704 314 -86
581 -118 911 -111 236 6 387 22 581 63 1101 232 1998 1040 2343 2113 166 516
194 1082 80 1626 -54 254 -129 467 -259 730 -461 937 -1348 1573 -2396 1720
-135 19 -579 28 -714 15z m540 -130 c630 -54 1195 -285 1685 -690 114 -94 329
-312 423 -430 328 -409 545 -906 629 -1445 19 -121 22 -180 22 -435 0 -255 -3
-314 -22 -435 -114 -731 -470 -1375 -1017 -1844 -579 -497 -1308 -754 -2060
-727 -577 20 -1086 183 -1567 502 -441 292 -794 693 -1028 1169 -219 445 -313
844 -313 1335 0 491 94 890 312 1335 332 675 904 1198 1611 1473 412 160 888
229 1325 192z"/>
<path d="M4806 5732 c-3 -5 -52 -12 -108 -14 -254 -13 -624 -130 -978 -309
-532 -268 -948 -637 -1265 -1119 -222 -338 -382 -703 -450 -1030 -32 -153 -45
-419 -26 -551 28 -197 107 -405 205 -543 38 -54 130 -150 208 -218 l26 -23
-104 -330 c-57 -181 -103 -337 -101 -345 1 -9 13 -15 27 -15 23 0 29 14 125
322 56 178 104 325 107 328 3 3 32 -8 65 -24 160 -80 291 -111 462 -111 306 0
616 137 936 413 271 233 553 603 744 977 294 575 411 1245 335 1920 -27 235
-83 474 -140 595 -27 57 -58 92 -68 77z"/>
</g>
</svg>
